Patient4_TMGait_0pt5_01_left_40_EMG.mot
version=1
nRows=19
nColumns=33
inDegrees=no
endheader
time	1LAddLong	2LGlutMax	3LGlutMed	4LIliopsoas	5LSemiMemb	6LBicFemLong	7LRecFem	8LVastMed	9LVastLat	10LGasMed	11LTibAnt	12lTibPost	13LPeroneusLong	14LSol	15LExtDigLong	16LFlexDigLong	17RAddLong	18RGlutMax	19RGlutMed	20RIliopsoas	21RSemiMemb	22RBicFemLong	23RRecFem	24RVastMed	25RVastLat	26RGasMed	27RTibAnt	28RTibPost	29RPeroneusLong	30RSol	31RExtDigLong	32RFlexDigLong
54.695	0.002747	0.13351	-0.029144	0.005493	-0.003357	0.08606	-0.06485	0.015869	0.01358	-0.041351	0.009155	-0.000305	0.068665	0.001221	0.0177	-0.006561	-0.013123	0.09964	0.94162	-0.072479	0.022278	0.002899	-0.078278	-0.089874	0.2623	-0.001984	0.37613	-0.004425	0.58258	-0.054779	-0.005035	-0.007477
54.696	-0.007019	0.13565	-0.018158	0.014954	-0.005798	0.087738	-0.079803	0.016022	0.022888	-0.033264	0.029449	0.005798	0.074615	-0.043335	-0.005341	-0.013428	0.005341	0.016785	-0.1413	0.056	0.001068	-0.032806	0.10254	-0.060883	0.22354	-0.001221	-0.14832	-0.011139	0.2887	-0.087128	-0.00412	-0.007172
54.697	0.001068	0.11108	-0.004578	0.024109	0.00061	0.074768	-0.076294	0.012665	0.023193	-0.028992	0.01709	0.008392	0.085754	-0.056152	0.007019	-0.017853	-0.000305	0.008087	-0.47653	0.050201	0.007324	-0.027161	0.13504	0.034943	-0.093842	-0.014648	-0.055389	-0.006561	0.13947	-0.063934	0.000916	-0.007935
54.698	0.004272	0.12451	-0.037079	0.023804	-0.010681	0.069275	-0.090485	0.005493	0.024261	-0.047913	0.014648	0.011902	0.083313	-0.084381	0.027161	-0.011444	0.015106	-0.010681	-0.021057	-0.045166	-0.002136	-0.036163	0.032501	-0.1033	-0.46371	-0.007782	0.17456	0.019226	0.021057	-0.009613	-0.003815	-0.002747
54.699	0.004883	0.094757	-0.054779	-0.009003	-0.000916	0.052948	-0.091705	0.00885	0.018158	-0.049133	0.009766	-0.002136	0.070801	-0.074921	0.0383	0.001068	0.011444	0.022736	-0.46936	-0.068207	0.015106	-0.025024	-0.19058	-0.16129	-0.82504	-0.003662	0.099945	0.028381	-0.054474	-0.019379	-0.00061	-0.011292
54.7	0.005646	0.089417	-0.046844	-0.005951	-0.00824	0.029755	-0.10239	0.00946	0.033875	-0.050354	-0.000916	0.002136	0.059814	-0.085297	0.055542	-0.003204	0.010376	-0.005798	-0.75836	-0.020142	0.011139	-0.050659	0.005798	-0.18417	-0.63934	-0.000305	-0.10132	-0.00885	-0.039215	-0.06485	-0.00061	0.000305
54.701	0.003204	0.075378	-0.078278	0.002899	-0.022888	0.024567	-0.11795	0.005188	0.026093	-0.041199	-0.002441	0.010986	-0.03418	-0.036621	0.05722	-0.001221	0.009003	-0.029755	-0.4982	-0.005951	-0.006256	-0.070496	0.005646	0.034943	-0.18662	-0.006714	-0.13855	-0.013428	-0.014038	-0.12497	-0.004578	-0.003967
54.702	0.016479	0.070953	-0.066833	0.00885	-0.00061	0.022736	-0.1088	0.005951	0.028229	-0.045624	-0.008392	-0.000305	-0.096283	-0.028687	0.044403	0.005188	0.019226	-0.012817	-0.168	0.027466	-0.012207	-0.083466	0.1947	0.15656	-0.11688	-0.014954	-0.15793	-0.000458	-0.017853	-0.092468	-0.006866	0.004272
54.703	0.007782	0.059967	-0.11353	0.010529	0.002594	0.022583	-0.1326	0.006714	0.024261	-0.048676	0.013733	-0.016022	-0.049591	-0.054321	-0.032349	-0.001526	0.017548	-0.040283	-0.041656	0.04837	-0.027924	-0.053864	0.082245	0.010223	-0.16266	-0.013885	-0.14771	-0.005035	0.006714	-0.091553	-0.005493	-0.003052
54.704	0.007172	0.04425	-0.06134	-0.00412	-0.006561	0.036163	-0.15045	0.006104	0.028992	-0.046234	0.018768	0.01297	-0.029297	-0.031586	-0.11612	0.041199	0.003662	-0.015259	0.062714	0.04425	-0.051575	-0.043793	0.242	-0.20401	-0.10193	-0.012817	-0.028534	0.000916	-0.014496	-0.068817	0.005646	0.001831
54.705	0.009766	0.036621	0.018768	-0.006104	-0.012512	0.02594	-0.12238	0.010834	0.030975	-0.04303	0.00885	0.023499	-0.031128	-0.036316	-0.09079	0.025482	0.000153	-0.070038	0.035858	-0.050812	-0.047607	-0.037079	0.21255	-0.26077	-0.02594	-0.010986	-0.063782	-0.000305	-0.011444	0.027008	-0.002594	0.001373
54.706	0.011444	0.03479	-0.003357	-0.011444	-0.041809	0.054932	-0.12283	0.010834	0.037537	-0.038757	0.002289	-0.002136	-0.012512	-0.065002	-0.003815	-0.096893	-0.004272	-0.121	-0.17639	-0.04364	0.053406	-0.032349	0.004272	-0.2562	-0.18082	-0.005188	-0.098572	-0.002594	0.049591	0.037537	-0.001373	0.003662
54.707	0.010834	0.028076	-0.034332	-0.008392	-0.016937	0.054474	-0.14267	0.005341	0.033722	-0.038757	-0.013428	0.002594	0.00351	-0.081787	0.024719	-0.063934	0.002441	-0.10559	-0.1796	-0.016632	0.080719	-0.06012	-0.08255	-0.23941	-0.11993	-0.00061	0.069733	-0.002594	0.006714	-0.062103	-0.003357	-0.001984
54.708	0.009003	0.024567	-0.063171	0.000153	0.020599	0.040894	-0.15167	0.004272	0.037231	-0.044861	0.00351	-0.025177	0.01236	-0.063934	0.01297	0.018005	0.001221	-0.12344	-0.056915	-0.023499	0.027161	-0.053558	0.093689	-0.16678	-0.040131	-0.007172	0.3006	-0.001678	-0.076141	-0.091095	-0.006104	-0.004883
54.709	0.005951	0.021973	-0.074768	-0.001831	0.014801	0.018616	-0.14328	-0.000305	0.03479	-0.043793	0.010223	0.005188	-0.01709	-0.041504	0.009155	0.042877	-0.008392	-0.070953	-0.057373	0.028381	-0.016632	-0.049744	0.11505	-0.023346	0.059509	-0.007019	0.23895	-0.009003	-0.075531	-0.11765	-0.004578	-0.011139
54.71	0.007629	0.007324	-0.073547	-0.00473	0.021973	0.031128	-0.15152	0.003967	0.034332	-0.040283	0.002136	-0.020752	-0.005493	-0.024719	0.010529	0.014496	-0.015259	-0.10437	-0.37506	0.075226	0.004578	-0.047913	-0.004883	0.091248	0.3096	-0.005493	-0.036774	0.000153	-0.059967	-0.13641	-0.007172	-0.007324
54.711	-0.000458	0.016937	-0.060272	-0.011139	-0.011444	0.00412	-0.15472	0.004272	0.037079	-0.041504	0.01358	-0.020752	-0.012054	-0.055542	0.022736	0.043335	0.012817	-0.048523	-0.2446	0.13916	-0.009308	-0.035095	0.25131	0.014038	0.42023	-0.008545	-0.043335	-0.002136	-0.052338	-0.16403	-0.006561	-0.008392
54.712	-0.002136	-0.018005	-0.030365	-0.010681	-0.028687	0.004272	-0.15808	0.005188	0.033264	-0.042877	0.007935	0.013885	-0.003357	-0.1532	0.022888	0.012054	0.017548	-0.10696	-0.41504	0.11246	-0.005493	-0.050812	0.27557	-0.13977	0.35019	-0.005646	0.09552	-0.000153	-0.069733	-0.18524	-0.005188	-0.010529
54.713	-0.005493	-0.054626	-0.066071	-0.001678	-0.024719	0.020447	-0.16037	0.008698	0.032349	-0.030365	-0.001068	-0.018158	0.005798	-0.18448	0.019379	0.003662	0.002441	-0.072479	0.48126	0.012207	-0.013428	-0.013733	0.31052	-0.14099	0.32684	-0.011444	0.24567	0.006714	-0.19699	-0.20172	-0.001068	-0.011749
